<?xml version="1.0" standalone="no"?>
<!DOCTYPE svg PUBLIC "-//W3C//DTD SVG 20010904//EN"
 "http://www.w3.org/TR/2001/REC-SVG-20010904/DTD/svg10.dtd">
<svg version="1.0" xmlns="http://www.w3.org/2000/svg"
 width="3168.000000pt" height="1344.000000pt" viewBox="0 0 3168.000000 1344.000000"
 preserveAspectRatio="xMidYMid meet">

<g transform="translate(0.000000,1344.000000) scale(0.100000,-0.100000)"
fill="#000000" stroke="none">
<path d="M16884 12536 c-20 -9 -50 -40 -80 -85 -92 -132 -217 -306 -344 -476
-70 -93 -134 -181 -143 -195 -12 -19 -23 -113 -47 -390 -40 -460 -34 -422 -73
-440 -36 -17 -77 -87 -77 -131 0 -14 11 -46 24 -71 l24 -46 -106 -211 c-84
-167 -109 -209 -118 -199 -7 7 -66 112 -132 233 -65 121 -168 308 -229 415
-209 372 -290 527 -311 596 -12 38 -37 123 -55 189 -89 311 -149 510 -162 535
-8 16 -24 32 -36 35 -42 14 -70 -33 -162 -275 -86 -225 -90 -238 -83 -262 3
-13 15 -90 26 -173 12 -82 29 -202 40 -265 52 -321 83 -552 73 -558 -6 -4 -14
-18 -18 -30 -6 -21 -3 -20 25 9 28 30 36 33 83 31 40 -2 58 -8 81 -30 26 -23
25 -20 -8 21 -36 45 -39 56 -67 210 -15 89 -40 239 -54 332 -14 94 -27 183
-30 200 -8 46 9 18 40 -65 15 -41 40 -100 55 -130 15 -30 37 -100 48 -155 38
-182 122 -635 147 -795 9 -58 18 -116 21 -130 4 -22 3 -23 -5 -5 -27 53 -124
314 -136 364 -7 31 -14 50 -14 44 -1 -7 -12 -13 -25 -13 -14 0 -27 -4 -30 -9
-7 -10 -18 -9 -56 3 -29 10 -52 31 -43 40 4 3 -1 6 -10 6 -11 0 -17 9 -18 23
-1 18 -2 19 -6 3 -3 -10 4 -30 15 -45 l19 -27 -33 -184 c-63 -348 -83 -465
-94 -536 l-11 -70 -162 -33 c-89 -18 -173 -39 -187 -46 -14 -7 -91 -64 -171
-127 -212 -164 -692 -525 -772 -580 l-68 -47 -132 44 c-73 25 -140 49 -149 55
-10 5 -25 10 -33 10 -9 0 -26 10 -38 23 -35 34 -99 30 -165 -11 -29 -18 -55
-32 -58 -32 -2 0 -61 -22 -130 -50 -119 -48 -126 -49 -154 -35 -58 30 -110 10
-136 -51 -21 -50 -17 -89 11 -122 l25 -30 -42 -89 c-41 -84 -47 -91 -130 -153
l-88 -65 0 -62 0 -62 38 -2 c20 -1 72 -2 114 -2 90 -2 88 5 33 -112 -101 -216
-108 -246 -61 -284 22 -18 69 -1 160 60 87 57 214 109 267 109 43 0 43 0 88
-225 45 -220 51 -198 -81 -289 -62 -43 -174 -119 -248 -171 -74 -51 -255 -174
-401 -273 -288 -195 -287 -194 -474 -221 -33 -4 -113 -16 -178 -26 l-117 -19
-29 29 c-27 24 -35 27 -77 22 -57 -6 -84 -31 -91 -85 -4 -31 0 -50 16 -77 26
-45 26 -51 -3 -138 -14 -40 -29 -90 -35 -113 -10 -37 -19 -46 -98 -95 -47 -30
-120 -73 -162 -96 -114 -63 -149 -96 -188 -180 -47 -103 -55 -154 -35 -226 14
-52 26 -69 110 -152 l93 -94 -1 -93 c-1 -51 3 -163 8 -248 6 -85 14 -263 18
-395 6 -213 5 -244 -9 -272 -10 -18 -17 -53 -17 -78 0 -63 40 -105 97 -105 39
0 40 0 95 -97 30 -54 99 -180 152 -279 95 -178 97 -183 99 -254 2 -66 4 -74
31 -95 54 -43 117 -41 166 5 25 23 30 36 30 74 0 36 -6 52 -30 80 l-31 34 3
124 3 123 18 -38 c29 -63 129 -240 153 -272 12 -16 33 -52 47 -80 15 -30 58
-82 109 -130 435 -416 447 -429 562 -610 l109 -170 -12 -42 c-21 -80 -15 -111
28 -154 34 -34 44 -39 86 -39 42 0 52 5 88 40 l40 41 -6 72 -6 72 62 71 c34
38 77 87 95 107 l32 38 165 -148 c159 -143 165 -149 165 -187 0 -31 7 -46 39
-77 33 -33 45 -39 82 -39 89 0 142 66 120 147 -10 36 -9 41 31 98 23 33 149
222 281 420 132 198 244 365 250 370 6 7 8 2 4 -15 -3 -14 -20 -115 -36 -225
-39 -252 -35 -238 -69 -253 -31 -13 -62 -68 -62 -108 0 -36 28 -91 58 -114 48
-38 140 -20 176 36 18 26 18 90 2 139 -5 14 14 56 65 145 39 69 103 181 142
250 39 69 115 202 170 295 56 94 122 210 148 259 55 105 50 114 70 -122 12
-142 12 -143 -11 -174 -46 -63 -32 -170 26 -197 35 -15 96 -14 120 4 12 8 29
30 38 50 14 29 15 45 7 90 -12 64 -6 91 74 335 29 91 72 225 95 298 23 73 47
135 53 137 33 12 165 21 187 13 18 -6 46 -47 103 -146 43 -75 112 -195 153
-267 42 -71 168 -292 281 -490 114 -198 216 -376 229 -396 20 -33 22 -45 17
-113 l-6 -77 52 -50 c51 -49 54 -54 83 -167 16 -65 41 -164 54 -222 48 -203
76 -318 144 -592 39 -153 70 -287 70 -298 0 -12 -7 -28 -15 -36 -8 -8 -19 -33
-25 -55 -28 -105 69 -192 175 -157 58 19 89 69 81 130 l-7 47 103 78 c314 237
564 423 570 423 10 0 -3 -544 -15 -557 -5 -7 -15 -13 -22 -13 -7 0 -26 -15
-43 -34 -53 -61 -54 -133 -1 -186 92 -91 254 0 218 122 -5 18 -9 35 -9 39 0 5
954 941 1184 1161 55 54 108 97 118 98 17 0 534 -170 556 -183 6 -5 12 -23 12
-40 0 -84 109 -164 194 -143 31 8 88 55 81 67 -4 5 0 6 8 3 9 -3 19 6 28 27 9
24 10 34 2 36 -7 3 -9 11 -6 19 3 8 0 14 -6 14 -9 0 -9 5 -1 20 7 14 7 20 0
20 -5 0 -9 3 -8 7 4 21 -18 70 -40 89 l-25 20 32 175 c18 96 45 230 61 299 16
69 41 188 56 265 15 77 31 145 36 151 4 6 27 14 50 18 48 8 100 56 118 111 13
38 9 36 170 74 234 54 368 84 496 109 l141 29 36 -33 c70 -64 161 -51 197 28
11 24 20 53 20 66 0 53 -52 111 -113 126 -44 10 -114 -34 -136 -87 l-18 -42
-169 -37 c-212 -47 -603 -128 -615 -128 -5 0 -16 14 -25 32 -13 25 -14 36 -5
50 6 10 93 121 194 246 100 125 216 270 257 322 41 52 139 175 219 273 l144
178 42 -7 c30 -4 52 -1 76 11 97 51 114 164 34 234 -30 26 -44 31 -85 31 l-48
0 -198 204 -197 204 -1 65 c-1 61 -4 69 -35 101 -19 20 -43 36 -52 36 -51 0
-78 34 -250 313 -191 310 -466 750 -584 937 l-99 155 -1 95 c-1 151 -35 199
-140 200 -44 0 -52 4 -67 28 -10 15 -32 47 -50 72 -76 103 -281 394 -361 510
-117 169 -241 347 -306 439 -50 71 -53 78 -47 121 3 25 11 47 16 48 13 5 13
113 -1 149 -5 15 -19 35 -29 43 -28 21 -81 216 -231 848 -29 122 -55 218 -58
213 -3 -5 -6 13 -7 40 -1 64 -26 112 -250 485 -101 169 -181 291 -187 287 -6
-4 -7 -1 -3 6 5 7 -4 30 -20 54 -15 23 -44 71 -64 107 -20 36 -67 115 -105
175 -37 61 -79 130 -92 155 -14 25 -34 59 -44 76 -17 29 -50 152 -207 774 -66
263 -95 350 -117 356 -5 2 -24 -3 -41 -10z m-3 -387 c10 -176 55 -688 65 -754
6 -41 50 -130 302 -604 160 -302 178 -343 162 -369 -9 -14 -10 -12 -5 8 5 21
4 22 -5 8 -35 -56 -1 -176 57 -203 43 -21 49 -37 62 -157 16 -142 14 -184 -20
-393 -26 -165 -41 -271 -79 -540 -4 -33 -20 -98 -35 -145 -15 -47 -30 -95 -34
-108 -6 -22 -11 -20 -131 60 -168 113 -288 197 -294 207 -3 4 16 65 40 137 25
71 83 238 128 372 l83 243 -42 52 c-24 29 -90 110 -147 181 -56 70 -138 171
-181 224 -42 52 -80 105 -83 117 -6 23 10 218 26 315 16 104 22 202 10 195 -6
-3 -8 -10 -5 -14 2 -5 -3 -17 -11 -27 -15 -18 -15 -18 -11 9 2 15 1 29 -3 32
-4 2 -12 -42 -19 -98 -17 -142 -40 -313 -50 -371 -7 -38 0 -112 34 -345 64
-441 105 -738 104 -753 -1 -30 -420 1144 -433 1215 -6 33 -3 42 22 72 62 70
67 163 13 219 -36 37 -39 23 44 241 116 306 245 664 375 1042 30 87 39 107 46
100 2 -2 9 -78 15 -168z m-141 -6 c-16 -38 -50 -126 -75 -198 -25 -71 -68
-188 -95 -260 -27 -71 -86 -233 -131 -360 -84 -238 -102 -283 -94 -230 10 60
55 534 55 578 0 41 8 55 106 183 58 76 140 187 181 247 42 59 77 107 79 107 2
0 -10 -30 -26 -67z m222 -70 c18 -101 174 -685 192 -718 23 -40 150 -247 236
-385 26 -41 104 -169 173 -285 69 -115 158 -264 198 -330 115 -191 139 -235
139 -260 0 -13 -22 -155 -50 -317 -85 -501 -80 -484 -99 -386 -7 34 -24 117
-37 183 -13 66 -35 185 -49 265 -13 80 -35 197 -49 260 -23 111 -23 115 -5
128 34 24 50 45 45 59 -3 8 -1 11 4 8 16 -10 22 40 10 84 -22 84 -104 145
-163 123 -17 -6 -32 -11 -33 -9 -4 5 -156 291 -259 487 -59 113 -127 241 -150
285 -24 44 -48 98 -53 120 -13 50 -71 618 -72 703 0 31 16 19 22 -15z m-1763
-648 c25 -65 210 -409 366 -680 15 -27 23 -45 17 -40 -13 12 -111 137 -227
290 -47 61 -124 160 -172 222 l-88 112 -18 103 c-30 167 -78 412 -83 417 -2 2
-4 -4 -4 -15 0 -16 -2 -17 -11 -4 -15 21 -2 -187 17 -269 8 -35 13 -66 11 -68
-3 -2 -15 25 -27 59 -29 77 -67 157 -87 180 -14 15 -12 28 21 128 21 61 49
136 63 168 l25 57 84 -290 c45 -159 97 -326 113 -370z m15 -350 c33 -44 80
-105 106 -135 111 -129 440 -562 512 -674 45 -70 50 -106 13 -106 -31 0 -89
-50 -105 -92 -8 -18 -14 -34 -16 -36 -6 -9 -360 -90 -365 -84 -10 11 -163 808
-235 1227 l-5 30 18 -25 c10 -13 45 -61 77 -105z m1100 -164 c58 -39 71 -93
32 -137 -18 -22 -32 -28 -63 -28 -39 0 -100 34 -86 48 3 3 1 6 -5 6 -7 0 -12
16 -12 39 0 32 6 44 31 65 36 31 64 33 103 7z m420 -121 c-6 -55 -9 -61 -15
-35 -10 44 -10 77 0 71 5 -4 7 13 5 36 -4 38 -3 40 7 18 7 -16 8 -48 3 -90z
m-436 -157 c21 -53 144 -398 197 -553 47 -138 156 -442 259 -722 20 -54 33
-98 30 -98 -3 0 -47 37 -97 83 -51 45 -159 138 -242 207 -82 69 -203 171 -268
228 -66 56 -132 112 -147 124 -28 20 -28 22 -14 49 18 36 18 69 -2 119 -16 40
-16 42 14 103 17 34 69 143 117 242 83 173 123 245 136 245 4 0 11 -12 17 -27z
m-1225 -171 c15 -40 52 -137 83 -215 67 -169 124 -321 121 -322 -8 -4 -207
-47 -272 -59 -44 -8 -88 -18 -99 -22 -15 -6 -17 -4 -11 15 6 21 78 394 118
616 16 91 23 112 28 90 3 -17 18 -63 32 -103z m1702 -152 c17 -21 77 -94 135
-161 58 -67 128 -150 156 -183 l51 -62 -108 -309 c-60 -171 -109 -316 -109
-322 0 -29 -18 -10 -24 25 -13 74 -67 431 -97 642 -69 486 -65 457 -46 426 7
-10 26 -35 42 -56z m345 -378 c-1 -10 -80 79 -80 90 0 5 18 -12 40 -37 22 -25
40 -49 40 -53z m855 -127 c15 -66 65 -273 111 -460 46 -187 84 -346 84 -352 0
-6 -42 17 -92 51 -51 35 -133 87 -182 117 l-88 53 7 51 c3 27 22 136 40 240
19 105 44 245 56 313 13 67 26 119 30 115 4 -4 19 -62 34 -128z m-2290 97 c-6
-5 -30 -17 -55 -27 -25 -11 -130 -64 -235 -118 -104 -55 -302 -158 -440 -229
-137 -72 -254 -133 -260 -138 -20 -15 -485 -250 -485 -245 0 9 132 269 178
350 74 130 100 165 125 165 50 0 1020 205 1132 239 40 12 51 13 40 3z m95 -94
c-18 -46 -46 -121 -61 -168 -47 -137 -80 -210 -97 -210 -9 0 -34 -9 -57 -20
-31 -15 -46 -30 -57 -58 -14 -36 -18 -38 -99 -58 -46 -12 -219 -56 -383 -98
-408 -105 -564 -127 -600 -87 -9 10 -30 21 -47 25 -16 3 -29 10 -29 16 0 6 6
10 13 8 6 -1 66 27 132 64 66 36 248 132 405 213 157 82 350 182 430 223 284
148 474 242 478 238 2 -3 -11 -42 -28 -88z m198 -107 c30 -64 90 -197 134
-296 44 -99 108 -241 143 -315 35 -74 86 -187 113 -250 28 -63 73 -167 101
-230 28 -63 48 -116 46 -118 -2 -3 -17 11 -32 29 -15 19 -50 54 -78 79 -66 60
-604 588 -632 620 -17 21 -20 34 -16 70 4 37 0 52 -21 83 -14 21 -26 43 -26
49 0 10 106 313 137 390 17 43 42 53 63 25 7 -11 38 -72 68 -136z m140 52 c69
-60 158 -135 197 -168 38 -34 126 -108 195 -165 69 -56 173 -147 231 -201
l105 -98 74 -158 c128 -276 240 -514 301 -645 59 -124 60 -127 44 -152 -10
-14 -19 -26 -21 -26 -8 0 -292 109 -388 149 -54 23 -105 41 -112 41 -10 0 -13
7 -8 24 3 14 -1 38 -11 57 -22 44 -16 39 -77 59 -49 15 -56 21 -85 76 -18 32
-69 142 -114 244 -45 102 -132 298 -194 435 -109 240 -275 622 -275 631 0 11
21 -5 138 -103z m1560 -393 c37 -205 37 -225 -7 -347 -43 -119 -182 -485 -230
-603 -16 -41 -32 -84 -36 -94 -3 -10 -7 -17 -8 -15 -2 2 -1 110 3 239 l6 235
47 158 c31 104 47 176 47 213 0 71 56 474 87 619 6 30 36 -103 91 -405z
m-3371 103 c-25 -43 -73 -135 -107 -204 l-61 -125 -139 -13 c-83 -7 -161 -20
-195 -32 -111 -39 -111 -39 250 235 93 71 197 151 230 177 33 26 61 46 63 44
2 -2 -17 -39 -41 -82z m1238 -409 c-35 -174 -44 -204 -58 -204 -7 0 -73 20
-147 45 -147 50 -345 102 -509 135 -100 19 -120 25 -110 34 2 2 85 23 184 46
99 24 272 66 385 95 l205 52 38 -37 38 -36 -26 -130z m574 -259 c354 -348 353
-347 347 -352 -2 -2 -79 28 -170 66 -92 39 -169 71 -172 71 -3 0 -126 52 -274
115 -149 63 -274 115 -280 115 -16 0 -12 41 21 186 31 139 45 179 75 209 20
19 -20 55 453 -410z m-1838 283 c-23 -37 -47 -56 -57 -45 -8 8 54 77 69 77 5
0 0 -15 -12 -32z m3615 -25 c55 -31 128 -72 162 -91 l64 -34 -7 -37 c-4 -20
-8 -54 -9 -76 -1 -38 -8 -47 -126 -158 l-125 -117 -22 177 c-13 98 -27 214
-33 258 -10 83 -13 135 -6 135 2 0 48 -26 102 -57z m-841 -58 c22 -17 90 -66
151 -108 63 -44 115 -87 122 -102 20 -43 13 -525 -7 -525 -9 0 -41 65 -163
330 -55 118 -110 238 -123 265 -46 97 -85 187 -85 196 0 13 57 -17 105 -56z
m-2965 40 c0 -6 -176 -95 -189 -95 -5 0 -14 12 -19 28 -5 15 -13 35 -17 44 -5
14 0 17 32 21 59 6 193 8 193 2z m-292 -78 l21 -57 -32 -14 c-18 -7 -63 -34
-100 -60 -70 -47 -87 -54 -87 -35 0 22 162 241 171 231 3 -4 15 -33 27 -65z
m-128 55 c0 -13 -12 -22 -22 -16 -10 6 -1 24 13 24 5 0 9 -4 9 -8z m1050 -17
c107 -20 134 -26 300 -68 147 -38 440 -126 453 -137 4 -3 -4 -62 -18 -131 -14
-68 -25 -136 -25 -150 0 -36 -8 -40 -41 -24 -15 8 -38 15 -49 15 -24 0 -111
49 -270 150 -155 100 -522 320 -531 320 -5 0 -9 4 -9 9 0 7 59 25 95 30 6 0
48 -6 95 -14z m-1455 -62 c164 -58 202 -64 230 -33 10 11 25 20 34 20 8 0 27
12 43 27 44 42 45 18 1 -34 -21 -27 -42 -56 -46 -65 -3 -9 -21 -24 -39 -34
-75 -38 -81 -57 -49 -177 21 -78 51 -230 56 -287 1 -19 10 -51 18 -70 20 -48
10 -153 -49 -516 l-48 -292 -136 -56 c-74 -30 -245 -94 -380 -141 -135 -48
-305 -109 -378 -137 -73 -28 -135 -48 -138 -46 -4 5 72 81 176 176 33 31 40
42 27 42 -25 0 -59 -19 -76 -43 -10 -14 -16 -16 -21 -7 -5 9 -43 -23 -116 -97
-60 -61 -134 -126 -164 -146 -30 -19 -129 -96 -220 -171 -91 -75 -175 -139
-186 -142 -13 -3 -41 4 -69 19 l-48 24 152 104 c84 57 205 141 269 186 174
122 328 225 408 271 39 23 80 51 92 62 19 18 213 147 365 243 31 20 57 43 57
51 0 7 26 47 58 87 107 137 185 251 292 429 50 83 60 107 60 145 0 25 -4 45
-9 45 -5 0 -28 48 -52 108 -81 204 -143 323 -208 402 -35 41 -75 85 -89 98
l-27 23 30 -7 c17 -4 97 -31 180 -61z m4132 45 c-3 -8 -6 -5 -6 6 -1 11 2 17
5 13 3 -3 4 -12 1 -19z m-4449 -12 c20 -13 43 -30 50 -39 8 -9 30 -21 50 -28
69 -23 138 -120 213 -299 22 -52 51 -119 65 -149 14 -29 23 -55 21 -58 -3 -2
-19 16 -37 41 -18 24 -94 102 -169 173 -154 146 -278 227 -399 263 -72 21 -83
33 -40 43 13 3 61 21 108 41 47 19 88 35 93 36 4 0 24 -11 45 -24z m4822 -229
l33 -238 -24 -26 c-39 -42 -311 -283 -320 -283 -16 0 -19 39 -5 71 34 75 266
711 266 728 0 3 4 1 9 -4 5 -6 23 -117 41 -248z m-3490 203 c18 -10 18 -13 4
-58 -20 -65 -65 -228 -113 -406 -39 -144 -51 -178 -51 -142 0 25 -160 470
-188 523 -10 19 -5 23 66 56 71 33 85 36 170 37 51 0 102 -5 112 -10z m234
-77 c43 -18 97 -46 120 -62 22 -15 115 -72 206 -126 375 -223 365 -216 368
-260 7 -116 10 -124 60 -149 26 -13 58 -26 72 -29 22 -6 33 -27 84 -159 32
-84 76 -205 97 -268 22 -63 48 -127 59 -142 37 -50 21 -50 -42 0 -35 27 -90
67 -123 89 -63 43 -148 137 -262 290 -37 50 -95 123 -128 160 -77 88 -288 349
-334 413 -20 27 -42 50 -49 50 -7 0 -61 -48 -119 -106 -95 -95 -303 -264 -325
-264 -4 0 -8 5 -8 11 0 22 153 532 172 575 14 29 42 25 152 -23z m-635 -110
c17 -49 62 -166 100 -260 38 -95 65 -173 60 -173 -5 0 -13 8 -18 19 -6 10
-103 96 -216 191 l-206 172 118 69 c65 37 121 69 124 69 4 0 20 -39 38 -87z
m-1201 52 c47 -8 52 -15 19 -31 -12 -6 -68 -38 -124 -72 -58 -34 -103 -55
-103 -48 0 7 7 36 16 65 14 48 19 54 67 75 29 14 59 23 67 21 8 -2 34 -7 58
-10z m342 -163 c25 -20 72 -61 106 -91 33 -31 89 -80 123 -110 63 -54 100
-113 101 -160 0 -22 -64 -121 -230 -351 -41 -58 -83 -117 -92 -130 -17 -24
-17 -24 -12 40 3 36 12 101 19 145 24 142 34 322 20 381 -7 32 -160 132 -220
143 -27 5 -132 12 -232 15 -165 5 -183 3 -192 -12 -9 -15 -10 -15 -11 0 0 16
26 34 140 96 36 19 80 45 97 59 18 13 63 41 100 62 l68 38 85 -45 c47 -25 105
-61 130 -80z m2567 97 c26 -11 71 -29 98 -39 53 -20 408 -167 590 -245 61 -26
129 -53 152 -62 49 -17 61 -29 68 -69 6 -30 9 -26 -294 -375 -36 -42 -130
-150 -208 -241 l-143 -165 -52 9 c-29 5 -54 10 -54 11 -1 1 -29 76 -62 167
-33 91 -88 232 -121 314 -79 191 -106 297 -93 374 11 65 66 342 69 342 1 0 23
-9 50 -21z m2556 -71 c-8 -29 -30 -98 -47 -153 -18 -55 -60 -184 -92 -287 -56
-178 -74 -218 -74 -164 0 13 -11 78 -25 145 -14 66 -28 154 -31 194 -6 70 -6
74 19 90 14 9 76 64 138 122 61 58 116 105 120 105 4 0 1 -24 -8 -52z m-4550
-60 c28 -14 157 -112 263 -199 45 -36 99 -76 120 -90 56 -34 31 -35 -146 -5
-82 14 -160 26 -172 26 -13 0 -29 4 -37 9 -22 14 -76 271 -56 271 3 0 16 -5
28 -12z m4782 -188 c71 -102 167 -241 215 -310 85 -124 279 -399 350 -495 35
-47 70 -107 70 -120 0 -20 -78 8 -610 219 -157 63 -310 121 -340 131 -30 10
-58 20 -62 24 -4 4 39 146 96 316 57 171 112 338 121 373 10 35 21 59 25 55 4
-4 65 -91 135 -193z m-3539 -72 c110 -133 243 -299 298 -368 120 -152 190
-226 279 -292 37 -27 67 -52 67 -54 0 -2 -33 12 -72 32 -40 21 -118 54 -173
75 -98 37 -101 39 -126 87 -26 51 -77 113 -226 278 -46 50 -83 96 -83 102 0 6
-4 14 -10 17 -19 12 -324 45 -412 45 -67 0 -88 3 -88 13 0 8 11 19 25 25 40
18 124 91 219 190 49 50 92 92 96 92 4 0 97 -109 206 -242z m-2019 107 c45
-13 180 -101 171 -111 -11 -10 -423 96 -438 113 -3 3 6 3 20 0 14 -4 39 -2 55
2 47 14 137 12 192 -4z m5032 -260 c37 -258 39 -281 26 -278 -21 5 -324 122
-353 137 -47 24 -47 41 1 93 68 74 291 277 294 267 1 -5 16 -103 32 -219z
m-5109 96 c85 -22 169 -41 185 -41 48 -1 86 -40 52 -53 -8 -3 -19 -37 -27 -81
-7 -42 -16 -79 -20 -81 -4 -3 -11 26 -14 65 -12 116 -66 167 -165 153 -42 -5
-231 -83 -259 -105 -33 -27 -23 25 26 135 21 49 29 58 46 54 12 -3 91 -24 176
-46z m4167 -87 c71 -25 170 -60 220 -78 92 -31 93 -32 119 -84 14 -28 40 -63
57 -78 l31 -26 -28 -151 c-15 -83 -29 -154 -32 -157 -11 -10 -175 174 -349
390 -95 119 -180 222 -189 229 -27 22 -18 32 14 16 16 -8 87 -36 157 -61z
m-3102 36 c88 -17 177 -34 198 -37 20 -3 37 -9 37 -12 0 -4 -65 -88 -144 -187
-78 -99 -150 -193 -159 -209 -13 -25 -16 -26 -17 -10 0 11 -24 110 -54 220
-49 179 -61 233 -57 258 2 12 27 9 196 -23z m2748 -9 c2 -10 1 -52 -3 -92 -14
-129 -101 -721 -111 -745 -4 -13 -15 -24 -22 -24 -8 0 -19 -12 -26 -26 -13
-30 -17 -30 -186 22 -60 19 -150 46 -200 60 -96 28 -115 38 -115 60 0 18 279
354 435 525 33 36 83 94 110 129 90 114 108 128 118 91z m172 -60 c22 -24 76
-87 120 -141 44 -54 149 -179 233 -278 83 -100 152 -183 152 -185 0 -2 -33
-16 -72 -30 -254 -90 -341 -122 -457 -168 l-131 -51 -27 29 c-16 16 -33 32
-40 34 -9 3 -7 29 7 103 11 55 29 169 40 255 28 213 68 450 81 483 11 27 12
27 33 10 12 -9 40 -37 61 -61z m-2091 5 c125 -15 100 4 236 -173 44 -57 75
-103 69 -103 -6 0 -41 20 -77 44 -161 104 -292 186 -340 210 -29 14 -52 29
-52 31 0 8 45 5 164 -9z m-552 -423 c-6 -19 -81 -64 -116 -70 -35 -5 -185 22
-199 36 -10 10 76 137 150 221 26 31 73 89 103 130 l55 74 6 -189 c3 -105 3
-195 1 -202z m-488 265 c10 -40 34 -122 53 -182 19 -59 32 -114 29 -121 -2 -7
-44 -68 -93 -135 -63 -88 -89 -117 -91 -103 -2 11 13 142 33 291 19 149 35
283 35 297 0 47 15 25 34 -47z m834 -14 c31 -22 28 -57 -9 -88 -34 -29 -42
-31 -70 -16 -26 15 -25 67 3 97 25 27 45 29 76 7z m3262 -82 c146 -57 176 -72
178 -90 2 -12 -44 -133 -102 -268 -67 -156 -106 -259 -106 -281 0 -62 -23 -31
-56 78 -90 298 -144 481 -159 539 -17 64 -17 64 6 83 28 22 21 24 239 -61z
m-290 -42 c0 -46 95 -371 177 -609 11 -29 -97 83 -167 175 -54 71 -70 99 -70
125 -1 58 43 338 52 333 4 -3 8 -14 8 -24z m692 -104 c238 -86 908 -360 905
-370 -4 -14 -120 -43 -422 -106 -452 -95 -586 -122 -590 -119 -6 8 -25 597
-19 613 9 22 20 21 126 -18z m-3150 -30 c101 -40 408 -152 467 -170 77 -25
258 -105 271 -121 21 -25 6 -50 -46 -75 -28 -14 -154 -76 -281 -138 l-231
-114 -273 135 c-151 74 -339 165 -419 203 -80 37 -148 71 -152 74 -4 3 66 5
155 5 l162 0 70 46 c39 26 99 76 135 113 35 36 68 66 72 66 4 0 36 -11 70 -24z
m-1178 -72 c9 -3 13 -11 10 -16 -16 -26 67 -38 123 -18 26 9 27 9 8 -5 -86
-67 -395 -275 -407 -275 -16 0 -8 16 23 45 16 17 68 85 115 152 83 119 95 130
128 117z m4143 -31 c1 -10 5 -124 9 -254 l7 -236 -48 -6 c-26 -4 -73 -7 -103
-7 l-55 0 6 45 c9 66 164 475 180 475 2 0 3 -8 4 -17z m-3857 -60 c-21 -79
-374 -951 -392 -969 -3 -2 -17 44 -33 103 -15 60 -50 180 -77 268 -27 88 -52
185 -55 215 -5 52 -3 57 29 89 18 19 44 41 58 49 14 9 81 55 150 103 69 48
166 108 215 134 50 26 94 51 99 56 17 16 19 0 6 -48z m49 -140 c1 -23 19 -201
41 -395 21 -194 46 -426 54 -515 9 -88 18 -180 22 -202 5 -33 4 -41 -9 -41
-24 0 -470 226 -491 249 -20 23 -33 -14 150 419 24 57 44 105 44 108 0 2 38
100 85 218 47 117 85 219 86 227 1 31 18 -29 18 -68z m3128 -44 c-25 -94 -235
-877 -263 -978 -9 -29 -19 -50 -24 -45 -4 5 -32 61 -60 124 -29 63 -90 189
-135 280 -127 255 -197 417 -190 440 3 11 18 28 33 38 72 49 638 260 655 243
4 -4 -3 -50 -16 -102z m1989 95 c18 -9 38 -22 44 -29 17 -21 14 -93 -6 -130
-21 -40 -80 -61 -141 -50 -32 6 -41 13 -60 51 -21 42 -22 47 -8 82 36 85 96
111 171 76z m-5030 -80 c35 -66 343 -540 633 -972 271 -404 468 -709 477 -735
7 -22 4 -26 -26 -32 -75 -14 -98 -110 -39 -156 18 -13 20 -20 11 -50 -5 -19
-37 -124 -70 -234 -33 -110 -67 -224 -74 -253 l-13 -54 -54 259 c-30 142 -73
351 -97 464 -46 223 -59 258 -160 418 -49 79 -97 141 -107 141 -3 0 -7 -10
-10 -22 -4 -14 12 -54 52 -127 136 -246 141 -261 186 -506 9 -49 39 -191 66
-313 27 -123 49 -227 49 -230 -1 -4 -89 169 -198 384 -209 415 -343 636 -470
776 -54 59 -61 72 -66 120 -46 410 -126 1151 -126 1164 0 23 5 17 36 -42z
m659 -211 c66 -29 157 -70 202 -90 l82 -36 293 143 c277 134 296 142 339 137
46 -6 95 10 110 35 10 15 84 -1 259 -57 74 -24 154 -48 177 -54 33 -9 49 -21
73 -58 37 -54 39 -30 -32 -353 -37 -170 -58 -227 -78 -215 -4 3 -36 -14 -70
-37 -59 -39 -64 -41 -94 -29 -17 7 -147 55 -289 107 -186 68 -272 104 -304
129 -88 67 -116 30 -33 -43 51 -45 92 -61 490 -197 l155 -53 7 -54 c4 -30 3
-57 -3 -63 -5 -5 -87 -62 -182 -125 -165 -110 -193 -138 -169 -162 7 -7 35 7
83 39 100 67 283 181 303 189 9 3 16 2 16 -3 0 -16 58 -43 94 -43 21 0 38 -5
40 -12 2 -7 18 -65 36 -128 119 -422 127 -454 121 -505 -7 -57 -16 -62 -116
-64 -33 -1 -78 -6 -100 -11 -48 -10 -414 -54 -645 -75 -91 -9 -187 -23 -213
-32 -27 -8 -51 -12 -54 -9 -4 3 5 41 19 84 29 85 46 279 54 612 3 143 1 181
-11 205 -14 28 -304 314 -515 510 -47 43 -200 192 -341 330 l-256 252 216
-105 c119 -57 270 -129 336 -159z m2550 172 c32 -38 77 -91 101 -116 85 -93
95 -153 37 -232 -40 -55 -156 -199 -313 -387 -52 -63 -115 -141 -140 -172 -44
-57 -69 -75 -56 -41 4 9 36 127 71 262 35 135 93 352 128 481 36 129 68 250
72 268 6 28 9 31 24 20 10 -7 44 -44 76 -83z m-2835 -270 c207 -211 301 -321
293 -342 -4 -11 -2 -14 5 -9 19 11 14 -13 -8 -41 -24 -31 -25 -60 -4 -113 28
-69 80 -79 158 -30 l47 30 27 -19 c49 -35 251 -246 261 -273 17 -46 8 -494
-11 -513 -3 -4 -60 76 -126 177 -113 174 -168 255 -419 618 -104 150 -178 264
-349 537 -45 72 -107 165 -138 205 -31 41 -56 79 -56 83 0 11 109 -95 320
-310z m-1150 285 c0 -5 -4 -10 -9 -10 -13 0 -41 -64 -41 -94 0 -28 -22 -40
-475 -253 l-159 -75 -71 7 c-38 3 -104 13 -145 20 -41 8 -99 16 -127 17 -29 2
-53 5 -53 8 0 3 60 26 133 51 72 26 188 67 257 92 69 25 202 73 295 106 235
83 355 128 362 135 10 10 33 7 33 -4z m33 -47 c-7 -3 -9 -11 -6 -19 5 -14 -8
-20 -20 -8 -9 10 16 43 27 37 6 -4 6 -8 -1 -10z m5567 -32 c0 -6 -32 -38 -72
-73 -39 -35 -130 -117 -201 -183 -71 -66 -174 -160 -228 -208 l-98 -88 -174
121 c-96 66 -191 135 -210 153 -44 38 -58 82 -30 91 19 6 731 153 863 179 90
17 150 20 150 8z m-5547 -44 c16 -11 16 -14 3 -32 -17 -23 -21 -21 -30 18 -7
30 1 34 27 14z m5597 -38 c0 -12 -40 -143 -89 -292 -49 -150 -94 -294 -101
-320 -12 -43 -18 -51 -63 -73 l-49 -25 -48 33 c-27 18 -93 65 -148 103 l-101
70 102 96 c244 229 480 439 488 433 5 -3 9 -14 9 -25z m292 -244 c80 -126 196
-313 258 -415 189 -307 410 -662 442 -709 17 -24 27 -42 22 -40 -50 21 -912
475 -933 492 -9 8 -11 24 -7 57 9 61 35 572 36 688 0 87 17 180 31 164 3 -4
71 -110 151 -237z m-5928 193 c13 -22 186 -565 186 -586 0 -5 -87 29 -192 75
-106 47 -263 115 -348 153 -85 37 -177 78 -205 90 l-49 23 139 68 c284 139
411 197 432 198 13 1 29 -8 37 -21z m5693 -230 c-4 -128 -12 -313 -19 -410
-11 -171 -12 -178 -33 -178 -31 0 -45 19 -45 63 0 46 -28 90 -71 112 -21 11
-29 23 -29 43 0 15 27 106 59 202 32 96 73 222 91 280 34 111 38 120 47 120 3
0 3 -105 0 -232z m-2615 185 c19 -22 224 -431 324 -645 52 -113 68 -158 58
-158 -18 0 -359 107 -394 123 -19 9 -26 22 -31 52 -6 48 -25 80 -56 94 -46 21
-43 74 23 379 23 103 42 172 49 172 7 0 19 -8 27 -17z m1400 -79 c25 -8 35
-59 47 -249 6 -93 14 -199 17 -235 4 -45 3 -62 -4 -55 -16 15 -242 525 -242
545 0 18 118 15 182 -6z m-325 -96 c-3 -13 -13 -102 -22 -198 -9 -96 -30 -269
-46 -383 -16 -115 -29 -221 -29 -236 0 -40 -8 -43 -59 -17 -25 13 -64 29 -86
36 -101 32 -325 119 -325 126 0 2 9 14 19 26 11 13 101 124 202 248 100 124
196 241 213 260 17 20 52 64 78 98 51 66 63 75 55 40z m790 -239 c-1 -4 -45
-44 -97 -89 -52 -46 -118 -105 -147 -132 -28 -26 -57 -48 -63 -48 -25 0 -40
73 -50 237 -5 92 -12 196 -16 231 l-6 63 190 -128 c105 -70 190 -131 189 -134z
m-575 19 c55 -123 106 -237 113 -255 13 -28 13 -33 -6 -57 -29 -36 -35 -93
-15 -140 9 -21 16 -45 16 -52 0 -8 -80 -175 -178 -371 -98 -197 -193 -393
-211 -436 l-32 -78 118 -142 c65 -78 172 -205 238 -282 191 -223 191 -223 157
-265 l-18 -23 -220 36 c-120 20 -315 50 -431 68 -195 30 -213 34 -213 52 0 28
136 442 155 470 12 20 103 248 155 392 36 100 130 335 146 366 22 43 81 510
110 872 3 43 8 76 11 73 3 -3 51 -106 105 -228z m-5284 196 c35 -8 75 -14 90
-14 39 -1 -248 -118 -541 -221 -168 -59 -197 -66 -197 -51 0 5 71 67 158 139
86 72 165 140 175 151 17 19 27 20 135 15 64 -3 145 -11 180 -19z m250 -86
c16 -24 70 -118 120 -209 50 -91 151 -271 225 -400 251 -438 449 -799 463
-842 6 -18 4 -20 -7 -11 -151 116 -546 417 -754 574 -283 213 -397 304 -429
338 -17 20 -17 24 -4 59 15 39 15 51 -4 90 -12 24 -42 32 -133 34 -45 2 -67 8
-90 25 -16 12 -67 40 -112 62 l-82 40 138 46 c76 26 243 89 372 141 129 51
242 94 251 94 9 1 30 -18 46 -41z m-1114 6 c-21 -15 -53 -37 -70 -50 -33 -25
-67 -30 -124 -15 -19 5 -53 12 -75 16 -37 7 -38 8 -16 16 14 5 81 19 150 30
69 11 128 22 130 25 2 2 13 4 24 4 15 0 10 -7 -19 -26z m1612 -176 l371 -162
12 -494 c7 -272 15 -509 16 -528 4 -38 -4 -74 -15 -74 -8 0 -81 125 -313 535
-74 132 -165 292 -202 355 -72 124 -218 382 -278 493 l-37 67 38 -15 c20 -8
204 -88 408 -177z m-1847 78 c19 -7 36 -17 38 -22 5 -14 -233 -181 -243 -171
-5 4 58 175 72 198 8 13 93 10 133 -5z m293 -68 c26 -12 48 -25 48 -30 0 -5
-7 -23 -16 -40 -9 -17 -13 -40 -10 -54 6 -23 11 -24 82 -24 41 0 94 -4 117 -9
23 -6 58 -12 78 -16 20 -3 65 -25 100 -48 59 -40 64 -46 67 -83 l3 -40 -163
-48 c-90 -26 -184 -56 -210 -66 -26 -10 -50 -15 -53 -10 -3 5 -52 34 -108 64
-74 39 -143 65 -255 97 -86 24 -151 47 -149 53 4 14 393 276 409 276 6 0 33
-10 60 -22z m6821 -75 c225 -156 212 -144 209 -190 -2 -24 4 -57 13 -77 16
-32 15 -36 -5 -76 -12 -23 -43 -103 -70 -178 -26 -75 -70 -193 -98 -262 -27
-69 -80 -208 -117 -310 -37 -102 -96 -259 -131 -350 -117 -308 -133 -355 -122
-374 14 -25 -7 -37 -43 -24 -23 8 -26 13 -17 27 11 17 8 56 -42 616 -28 314
-60 712 -60 752 0 26 6 36 25 45 45 20 67 69 63 142 -2 60 0 68 27 97 61 64
260 229 273 224 7 -2 49 -30 95 -62z m-2175 -36 c7 -6 20 -27 28 -46 29 -68
-16 -141 -86 -141 -29 0 -77 27 -90 49 -12 23 -7 75 11 114 19 41 98 55 137
24z m-2355 -595 c285 -424 286 -426 286 -485 -1 -37 6 -58 26 -88 27 -39 28
-40 22 -171 -4 -108 -15 -181 -56 -383 -29 -137 -77 -374 -107 -525 -30 -151
-57 -285 -60 -297 -2 -13 -9 -23 -14 -23 -12 0 -69 182 -179 575 -140 500
-143 512 -115 536 41 34 68 126 53 181 -10 40 -65 94 -104 104 -15 4 -26 15
-29 32 -3 15 -10 171 -16 347 -5 176 -12 401 -15 500 l-6 180 50 -83 c28 -46
147 -226 264 -400z m4 344 c123 -61 225 -117 227 -125 13 -42 69 -551 62 -558
-2 -2 -40 54 -85 124 -45 71 -162 247 -261 392 -165 243 -194 289 -172 279 4
-1 107 -52 229 -112z m2663 14 c217 -71 240 -80 240 -92 0 -32 -302 -536 -327
-545 -8 -3 -18 -2 -23 3 -10 10 -150 485 -171 579 -11 52 -11 59 4 70 9 6 14
15 10 18 -3 4 3 7 15 7 11 0 24 5 28 11 9 16 49 7 224 -51z m2388 -36 c28 -19
28 -20 -8 -349 -17 -148 -37 -341 -45 -427 -9 -87 -19 -168 -24 -180 -5 -13
-10 56 -15 178 -3 109 -11 267 -16 349 -5 83 -12 201 -15 263 l-7 113 38 34
c42 39 59 42 92 19z m-6829 -43 c12 -12 22 -46 30 -102 7 -46 14 -92 16 -101
2 -10 0 -20 -5 -23 -10 -6 -430 135 -430 145 0 10 300 99 338 99 19 1 40 -7
51 -18z m6616 7 c14 -6 27 -21 30 -32 9 -49 45 -744 45 -883 l0 -103 -33 -13
c-37 -16 -96 -79 -98 -105 -1 -9 -1 -40 1 -68 l2 -51 -84 -50 c-46 -27 -154
-93 -242 -146 -99 -61 -167 -96 -182 -95 -13 1 -24 6 -24 11 0 4 -4 6 -9 2
-27 -16 -15 31 48 192 65 164 282 740 437 1162 64 172 72 191 79 191 2 0 16
-5 30 -12z m-7573 -65 c-2 -32 -5 -59 -6 -60 -1 -2 -89 0 -194 4 -166 5 -192
8 -192 22 1 45 50 71 137 72 37 0 86 4 108 8 22 5 65 9 96 10 l56 1 -5 -57z
m8020 -26 c140 -77 233 -126 468 -249 47 -25 133 -71 193 -102 l107 -58 0 -41
0 -42 -328 -171 c-180 -94 -396 -206 -480 -248 l-152 -77 -40 32 c-45 36 -45
37 -26 145 8 44 17 108 20 144 4 36 20 180 36 320 16 140 32 294 35 343 4 48
9 87 11 87 2 0 73 -38 156 -83z m-6869 -142 c91 -192 130 -280 320 -715 72
-165 176 -414 208 -498 7 -19 -9 -9 -72 40 -67 52 -85 72 -101 113 -37 95
-170 420 -223 545 -30 69 -92 220 -139 335 -77 192 -85 218 -92 300 -3 50 -4
88 -1 85 2 -3 47 -95 100 -205z m4701 145 c74 -27 163 -63 197 -80 35 -16 76
-30 92 -30 38 0 34 -13 -15 -51 -24 -19 -164 -137 -313 -264 -431 -368 -515
-438 -521 -433 -2 3 0 17 6 32 5 15 10 49 10 76 0 58 7 80 26 80 7 0 21 11 30
25 13 20 14 33 5 74 l-10 49 102 169 c57 92 134 221 173 285 38 65 72 118 76
118 4 0 68 -22 142 -50z m870 -17 c3 -27 13 -140 21 -253 9 -113 24 -304 35
-425 42 -472 60 -707 55 -716 -4 -5 -17 -9 -30 -9 -17 0 -38 18 -76 68 -29 37
-85 103 -124 147 -80 91 -256 302 -298 356 l-27 36 71 144 c106 214 288 587
315 647 30 66 50 68 58 5z m-5269 -204 c251 -188 517 -391 665 -507 l145 -113
1 -47 c2 -46 7 -73 18 -102 6 -15 -42 -56 -412 -357 -42 -35 -83 -63 -89 -63
-17 0 -39 45 -142 292 -48 117 -132 312 -186 433 -54 121 -112 254 -130 295
-18 41 -67 148 -109 236 -42 89 -76 165 -76 168 0 3 39 -24 88 -62 48 -37 150
-115 227 -173z m-617 66 c84 -29 155 -54 157 -57 3 -3 1 -38 -5 -79 -5 -41
-22 -168 -36 -284 -14 -115 -28 -211 -29 -213 -2 -2 -54 36 -117 84 -365 283
-382 294 -404 272 -11 -11 -10 -28 10 -103 28 -111 125 -421 205 -655 77 -226
112 -342 102 -338 -5 2 -39 39 -77 82 -75 87 -176 197 -353 388 -63 68 -134
145 -159 171 -36 39 -46 46 -58 36 -8 -6 -17 -10 -19 -7 -6 5 135 148 146 148
17 0 69 90 69 119 0 40 -33 64 -66 49 -17 -8 -27 -8 -37 1 -11 8 -22 9 -42 1
-21 -8 -39 -7 -76 5 -27 9 -51 20 -54 25 -3 5 -30 16 -60 24 -60 18 -88 46
-106 107 -18 57 -7 73 45 67 63 -7 101 -38 121 -99 21 -62 44 -73 138 -65 74
7 170 48 219 93 19 19 34 24 53 20 23 -4 29 0 42 32 9 20 23 74 33 121 10 47
23 104 29 127 l12 42 82 -31 c45 -18 151 -55 235 -83z m2240 90 c-3 -3 -9 2
-12 12 -6 14 -5 15 5 6 7 -7 10 -15 7 -18z m53 -110 c130 -177 213 -320 353
-605 39 -80 109 -217 156 -305 l84 -160 -61 53 c-34 29 -76 69 -94 90 -18 20
-109 110 -203 199 l-171 162 0 55 c0 60 -25 99 -71 110 -34 9 -43 34 -55 153
-5 60 -14 151 -19 203 -5 52 -9 111 -9 130 l0 35 19 -25 c11 -14 42 -56 71
-95z m-2038 -180 c19 -44 65 -147 102 -230 90 -202 244 -580 245 -603 0 -2
-15 8 -32 23 -18 14 -120 91 -225 172 -188 142 -193 147 -193 182 -1 66 54
551 61 544 4 -5 22 -44 42 -88z m5053 60 c-9 -14 -32 -65 -51 -113 -18 -48
-45 -114 -60 -146 -14 -32 -24 -65 -21 -73 3 -8 2 -12 -3 -9 -12 8 -35 -50
-25 -65 4 -7 3 -10 -3 -6 -6 4 -31 -40 -58 -99 -45 -99 -52 -108 -109 -149
-86 -61 -316 -192 -415 -236 l-83 -37 -35 24 c-71 48 -158 20 -189 -61 -9 -25
-20 -45 -23 -45 -10 0 -255 -44 -471 -85 -288 -54 -463 -85 -480 -85 -8 0 26
27 76 59 50 32 145 98 210 147 l119 88 120 28 c66 15 176 41 245 57 192 46
274 61 331 61 46 0 55 4 85 36 19 20 32 40 28 45 -3 5 0 8 8 7 7 -2 12 2 11 8
-1 6 10 22 25 35 l27 24 -24 -27 c-37 -42 -14 -33 38 15 153 140 723 626 735
627 4 0 1 -11 -8 -25z m-5471 -373 c97 -79 192 -153 211 -165 23 -15 34 -30
34 -47 0 -14 -14 -113 -30 -220 -17 -107 -39 -262 -50 -344 -11 -82 -21 -151
-23 -152 -8 -8 -267 777 -322 979 -27 99 -30 116 -15 105 9 -7 97 -77 195
-156z m8168 94 l24 -24 -53 -218 c-29 -120 -57 -221 -61 -224 -11 -10 -881
-21 -887 -11 -6 10 81 58 434 241 146 75 318 164 382 198 65 34 122 62 127 62
6 0 21 -11 34 -24z m248 -123 c216 -222 279 -294 279 -317 0 -22 -3 -23 -127
-29 -71 -4 -194 -7 -275 -7 -137 0 -148 1 -148 18 0 10 23 108 50 218 53 207
71 245 108 225 10 -5 60 -53 113 -108z m-3921 62 c0 -2 -30 -24 -67 -49 -38
-24 -136 -91 -220 -149 -261 -181 -262 -181 -357 -182 l-81 0 -3 -35 c-2 -23
2 -38 13 -46 13 -10 6 -19 -52 -61 -267 -194 -550 -380 -561 -368 -5 5 52 209
123 435 35 113 72 232 82 264 22 73 14 70 258 96 99 11 248 29 330 40 83 11
226 27 320 35 93 9 171 18 174 20 6 6 41 6 41 0z m70 -151 l0 -114 -30 -19
c-16 -10 -81 -28 -142 -40 -62 -13 -168 -36 -236 -53 -68 -16 -128 -28 -134
-26 -10 4 54 51 269 197 76 52 164 114 196 138 33 24 63 40 68 37 5 -3 9 -57
9 -120z m-5435 -131 c-11 -62 -86 -387 -91 -392 -2 -2 -4 4 -4 15 0 10 -3 135
-6 276 l-5 257 56 -58 c53 -56 56 -61 50 -98z m3556 -58 c236 -222 399 -390
399 -414 0 -10 -13 -60 -29 -112 -37 -118 -146 -474 -171 -554 -22 -75 -55
-163 -63 -171 -3 -3 -6 64 -6 150 -1 156 -1 157 25 181 46 43 50 130 8 176 -9
10 -31 23 -50 29 -29 10 -35 18 -49 68 -38 130 -239 756 -262 811 -12 29 22 1
198 -164z m-869 115 c18 -11 29 -20 24 -20 -5 0 -3 -7 4 -15 25 -30 18 -75
-18 -106 -44 -39 -85 -38 -126 1 -17 16 -44 40 -59 53 -28 22 -28 22 -9 44 22
26 97 62 129 63 13 0 37 -9 55 -20z m-2436 -23 c12 -7 71 -64 130 -127 334
-353 487 -530 460 -530 -21 0 -447 217 -467 237 -16 17 -128 267 -144 323 -4
14 -12 28 -18 31 -11 7 -1 79 11 79 4 -1 17 -6 28 -13z m3138 -187 c32 -102
82 -259 111 -350 90 -277 88 -267 62 -301 -13 -18 -24 -51 -27 -82 l-5 -51
-205 -137 c-113 -76 -210 -138 -216 -138 -7 -1 3 67 28 192 79 387 152 810
163 937 8 97 15 134 25 123 4 -4 33 -91 64 -193z m-2152 117 c29 -24 107 -84
173 -134 104 -79 279 -215 437 -341 26 -20 47 -45 48 -54 0 -16 -17 -125 -86
-563 -61 -386 -58 -373 -76 -345 -9 14 -39 63 -68 109 -53 85 -101 136 -453
479 -81 78 -147 150 -147 160 0 9 11 91 24 182 14 91 32 221 40 290 22 171 38
260 47 260 4 0 31 -19 61 -43z m-1091 -143 c140 -292 159 -385 158 -762 0
-130 -4 -246 -8 -256 -7 -17 -10 -16 -28 15 -12 19 -52 93 -90 164 -38 72 -84
154 -101 183 -89 146 -92 153 -92 201 0 34 -6 56 -21 75 -23 30 -25 14 26 241
18 83 41 185 50 228 9 42 19 77 21 77 3 0 41 -75 85 -166z m2379 114 c0 -4 -9
-8 -20 -8 -11 0 -20 4 -20 9 0 6 9 9 20 8 11 -1 20 -5 20 -9z m3582 -49 c-10
-24 -43 -115 -72 -201 -43 -128 -56 -158 -71 -158 -11 0 -58 6 -106 14 -49 8
-132 22 -187 30 -54 9 -103 19 -108 22 -6 4 39 32 98 63 60 31 149 80 197 109
49 29 119 68 157 87 38 19 77 46 86 60 24 37 27 24 6 -26z m1837 -5 c31 -39
28 -97 -5 -123 -57 -45 -153 -9 -154 57 0 35 18 62 53 77 50 22 83 18 106 -11z
m-5390 -49 c17 -20 31 -37 31 -38 0 -1 -5 -29 -10 -62 -26 -149 -93 -608 -115
-782 -14 -106 -29 -213 -35 -237 -5 -24 -16 -106 -25 -181 -8 -75 -18 -141
-21 -146 -6 -10 -87 -49 -102 -49 -5 0 -12 42 -15 93 -6 106 -39 246 -128 537
-75 248 -138 463 -139 472 0 3 39 37 86 74 114 89 384 312 407 335 24 26 30
24 66 -16z m7008 -17 c25 -33 21 -58 -17 -106 -170 -211 -526 -659 -637 -802
-75 -96 -139 -178 -142 -182 -3 -4 -12 -4 -19 1 -11 6 -3 52 38 222 29 118 72
297 97 399 76 318 104 434 109 452 6 21 30 23 330 26 178 2 233 0 241 -10z
m-627 -6 c0 -11 -107 -457 -120 -502 -10 -35 -113 -467 -125 -527 -5 -27 -13
-34 -43 -43 -20 -5 -44 -10 -52 -10 -8 0 -42 44 -74 98 -67 110 -115 188 -350
565 -91 147 -166 274 -166 283 0 8 7 26 16 40 9 13 20 39 23 57 l7 32 124 5
c206 9 760 11 760 2z m-6263 -85 c49 -152 249 -869 277 -988 4 -18 1 -31 -10
-40 -9 -7 -122 -72 -252 -144 -212 -118 -237 -130 -240 -111 -1 12 9 100 23
196 14 96 52 369 85 605 73 518 80 568 88 561 3 -4 16 -39 29 -79z m5110 -53
c33 -22 47 -25 102 -22 l64 3 40 -65 c22 -36 88 -144 147 -240 59 -96 136
-222 172 -280 35 -58 102 -165 147 -239 85 -138 94 -168 43 -158 -38 8 -1191
581 -1224 609 -22 18 -28 33 -30 72 l-3 48 245 149 c134 82 248 149 252 149 4
0 24 -12 45 -26z m-2038 -170 c113 -19 207 -37 209 -39 2 -2 -12 -46 -32 -97
-35 -90 -223 -590 -231 -615 -9 -26 -35 1 -49 50 -38 132 -137 517 -152 593
l-17 85 28 29 c16 17 31 30 34 30 2 0 97 -16 210 -36z m-429 11 c9 -8 34 -21
55 -28 l38 -13 44 -170 c24 -93 64 -248 89 -344 26 -96 48 -184 51 -196 4 -16
-4 -26 -29 -41 l-34 -20 -229 130 c-127 71 -336 187 -465 257 -129 71 -270
148 -313 173 -43 25 -91 50 -107 57 -17 7 -30 16 -30 21 0 10 2 10 160 39 63
11 160 29 215 40 55 11 183 35 285 55 102 19 199 39 215 44 17 5 32 10 34 10
3 1 12 -6 21 -14z m910 -85 c74 -11 241 -36 370 -56 129 -20 256 -39 283 -41
47 -6 60 -20 35 -41 -7 -5 -119 -65 -248 -132 -129 -67 -271 -142 -315 -165
-44 -23 -192 -100 -328 -170 -237 -121 -249 -126 -267 -110 -15 14 -17 22 -9
37 5 10 41 101 79 201 37 100 93 250 124 332 31 83 59 156 61 163 4 10 16 12
43 8 20 -3 98 -15 172 -26z m921 1 c9 -11 19 -17 23 -14 3 4 6 -1 6 -10 0 -9
4 -17 9 -17 9 0 7 -33 -4 -89 -7 -36 -32 -58 -73 -64 -44 -5 -66 5 -109 49
-22 22 -31 38 -26 50 4 11 0 22 -12 30 -21 16 -13 44 13 44 11 0 28 12 38 26
17 23 24 25 69 20 33 -4 56 -12 66 -25z m-6708 -73 c30 -51 72 -127 92 -168
78 -156 439 -816 473 -864 29 -42 13 -29 -82 64 -213 209 -270 287 -426 585
-40 77 -80 150 -87 162 -10 14 -16 59 -19 125 -3 57 -6 122 -8 146 -2 23 -2
42 -1 42 2 0 28 -42 58 -92z m3724 76 c-3 -3 -12 -4 -19 -1 -8 3 -5 6 6 6 11
1 17 -2 13 -5z m-3403 -149 c95 -45 132 -69 179 -116 l59 -59 -31 -35 c-33
-38 -38 -66 -21 -127 8 -27 23 -45 56 -68 41 -27 50 -30 78 -20 62 20 114 96
102 146 -4 13 -5 24 -4 24 2 0 65 -61 141 -134 l137 -135 5 -408 c3 -224 7
-462 10 -528 l5 -120 -19 42 c-30 65 -157 258 -236 358 -68 86 -213 323 -342
560 -188 342 -316 581 -357 662 l-46 92 83 -38 c45 -21 136 -64 201 -96z
m1255 -105 c35 -113 73 -239 86 -280 25 -79 93 -323 119 -426 9 -34 16 -85 16
-113 l0 -50 -142 -84 c-311 -183 -343 -202 -350 -205 -5 -2 -8 12 -8 30 0 51
38 316 48 336 5 9 12 46 16 82 3 36 22 155 41 265 48 280 95 589 95 633 0 20
4 32 8 27 5 -6 37 -102 71 -215z m2531 5 c91 -50 221 -122 290 -160 165 -90
372 -205 545 -302 136 -77 140 -80 137 -110 -2 -17 3 -47 12 -66 14 -34 13
-37 -15 -82 -16 -25 -101 -142 -189 -260 l-160 -214 -38 5 c-20 3 -42 7 -48 9
-7 2 -42 59 -79 127 -37 68 -91 164 -120 213 -29 50 -94 164 -145 255 -51 91
-137 239 -190 330 -89 151 -168 289 -199 348 -15 28 -35 37 199 -93z m2420 38
c0 -10 -34 -81 -76 -158 -42 -77 -169 -315 -283 -530 -266 -498 -250 -471
-266 -445 -9 15 -61 12 -75 -5 -11 -13 -47 19 -244 209 l-232 225 0 63 0 63
325 169 c476 247 828 426 840 426 6 0 11 -8 11 -17z m484 -100 c121 -59 354
-173 516 -254 162 -80 347 -171 411 -203 l116 -56 6 -50 c3 -27 13 -62 21 -79
15 -29 15 -30 -17 -56 -17 -15 -129 -123 -248 -241 -119 -118 -221 -214 -226
-214 -5 0 -72 98 -148 218 -131 204 -632 959 -659 992 -23 26 -27 50 -9 50 8
0 115 -48 237 -107z m-384 63 c27 -210 74 -570 85 -651 8 -60 20 -146 25 -190
22 -191 41 -335 51 -402 l12 -73 -49 -48 -49 -48 -270 69 c-148 38 -299 77
-335 86 -63 16 -64 17 -72 55 -5 21 -16 51 -25 66 -15 26 -15 29 4 56 11 16
49 88 86 159 80 159 183 352 361 681 117 216 139 251 156 247 11 -3 20 -6 20
-7z m243 -229 c401 -605 647 -980 665 -1013 10 -19 -3 -36 -148 -179 -88 -86
-165 -155 -172 -152 -7 2 -64 22 -125 43 -106 37 -113 41 -113 66 0 59 -47
121 -100 133 -34 7 -32 -3 -55 230 -15 141 -29 255 -90 710 -23 165 -45 357
-45 382 0 16 4 21 15 17 8 -3 83 -110 168 -237z m-3753 31 c-11 -21 -58 -100
-256 -433 -32 -55 -61 -104 -63 -109 -2 -5 -40 -70 -85 -145 -45 -75 -100
-166 -121 -203 -22 -37 -42 -68 -45 -68 -3 0 7 75 22 168 16 92 39 238 53 324
14 87 30 166 36 176 6 10 72 58 147 107 75 50 177 117 227 151 49 34 91 60 93
58 2 -1 -2 -13 -8 -26z m-1952 -393 c35 -55 77 -120 93 -145 33 -50 33 -44 -1
-245 -11 -60 -24 -148 -29 -195 -5 -47 -13 -93 -16 -102 -6 -14 -2 -18 15 -18
21 0 21 -1 -7 -38 -41 -56 -132 -156 -137 -151 -2 2 -7 233 -11 514 -9 587
-17 550 93 380z m7123 36 c41 -42 36 -84 -17 -138 -36 -37 -124 12 -124 69 0
33 24 84 42 91 34 14 71 6 99 -22z m-5805 -38 c-37 -48 -222 -322 -416 -613
-156 -235 -194 -290 -197 -287 -1 2 13 75 32 163 19 87 46 229 61 314 14 85
30 163 35 173 6 9 38 31 72 48 70 35 308 171 383 218 27 17 53 31 57 31 5 0
-7 -21 -27 -47z m3142 -418 c118 -116 133 -133 130 -160 -4 -36 1 -35 -308
-65 -285 -27 -261 -29 -255 23 3 23 12 123 20 222 21 250 25 275 39 269 6 -2
20 2 31 10 22 16 11 25 343 -299z m-462 133 c-4 -95 -12 -220 -19 -278 l-12
-105 -120 -12 c-66 -6 -141 -12 -166 -12 -42 -1 -48 2 -59 29 -11 26 -9 33 11
62 20 28 165 225 321 436 21 28 41 52 45 52 3 0 3 -78 -1 -172z m3004 86 c0
-8 -15 -86 -34 -172 -18 -86 -37 -175 -40 -197 -4 -22 -25 -121 -46 -220 -21
-99 -44 -205 -50 -236 -10 -54 -12 -57 -52 -68 -33 -10 -43 -10 -54 1 -8 7
-72 103 -144 213 l-129 200 197 198 c108 110 223 221 255 248 58 49 97 63 97
33z m-6244 -111 c-3 -10 -19 -99 -36 -198 -53 -314 -82 -415 -120 -415 -19 0
-129 91 -305 250 -44 40 -81 75 -82 79 -3 8 523 301 540 301 5 0 6 -8 3 -17z
m3845 -394 c16 -17 29 -34 29 -37 0 -3 -24 -49 -54 -101 -29 -53 -115 -213
-191 -356 -76 -143 -161 -303 -190 -355 -29 -52 -93 -169 -143 -260 -50 -91
-103 -191 -117 -222 -15 -32 -29 -58 -31 -58 -3 0 -2 15 1 33 2 17 12 127 20
242 31 424 87 1080 93 1087 4 4 63 12 132 18 69 7 181 18 250 25 178 18 169
19 201 -16z m422 -40 c75 -22 186 -51 245 -65 126 -29 254 -65 263 -73 4 -3
10 -16 13 -27 7 -24 31 -5 -503 -406 -167 -125 -308 -228 -313 -228 -7 0 -8
18 -5 48 4 26 9 130 13 232 4 102 8 196 9 210 2 14 3 81 4 150 l1 125 30 14
c17 7 41 26 53 42 13 19 27 27 37 24 8 -4 77 -24 153 -46z m1478 -110 c46 -72
105 -160 132 -196 26 -36 47 -68 47 -72 -1 -3 -10 -17 -21 -30 -24 -30 -25
-30 -294 62 -104 35 -206 68 -225 72 l-35 8 150 143 c83 79 153 144 156 144 3
0 43 -59 90 -131z m-2545 74 c-3 -27 -8 -77 -11 -113 -2 -36 -11 -144 -19
-240 -9 -96 -22 -272 -30 -390 -9 -118 -21 -284 -28 -368 l-12 -153 -38 143
c-21 79 -63 249 -93 378 -30 129 -78 333 -106 453 l-51 218 25 19 c13 11 30
33 37 49 16 39 39 43 263 49 l68 2 -5 -47z m740 -170 c-4 -98 -11 -283 -15
-411 -5 -129 -13 -237 -17 -241 -5 -4 -128 -97 -274 -206 -146 -109 -300 -227
-343 -262 -74 -59 -97 -72 -97 -56 0 8 266 506 295 553 12 19 89 161 170 315
81 154 164 312 185 350 20 39 45 85 54 103 9 17 24 32 33 32 14 0 15 -18 9
-177z m1209 -38 c50 -16 94 -32 99 -36 5 -4 -31 -45 -80 -91 -92 -85 -535
-518 -658 -643 -192 -194 -522 -505 -536 -505 -32 0 -35 18 -28 177 3 87 6
220 7 296 1 76 5 146 10 156 10 17 41 42 376 292 99 74 248 187 331 251 150
114 151 115 179 100 46 -24 120 -19 158 11 17 15 37 25 42 23 6 -1 51 -15 100
-31z m956 -198 c38 -25 47 -55 28 -98 -28 -69 -97 -89 -141 -41 -68 73 -61
117 25 149 45 16 50 16 88 -10z"/>
<path d="M18799 10735 c-59 -32 -78 -119 -39 -182 25 -41 87 -62 128 -43 15 7
40 14 55 17 30 5 30 4 353 -174 l172 -95 6 -48 c7 -51 49 -110 80 -110 14 0
16 -21 18 -160 5 -323 6 -303 -22 -317 -13 -7 -41 -30 -62 -53 -25 -27 -46
-40 -64 -40 -14 0 -132 28 -262 61 -131 34 -281 72 -335 84 -53 12 -98 24
-100 26 -1 2 -13 25 -26 51 -25 51 -67 78 -121 78 -104 0 -166 -123 -107 -211
32 -47 62 -61 126 -56 48 3 58 8 89 42 l36 39 145 -37 c401 -101 498 -126 523
-131 21 -5 30 -15 37 -44 16 -55 15 -57 -31 -93 -78 -61 -480 -381 -623 -495
-77 -62 -148 -121 -158 -132 -16 -18 -16 -19 8 -30 22 -10 32 -5 122 67 54 43
135 107 180 142 45 35 169 134 275 219 106 86 209 168 229 183 l36 27 57 -27
56 -28 -5 -65 c-2 -36 -8 -170 -11 -297 l-7 -233 -31 -19 c-61 -38 -78 -65
-78 -121 0 -61 21 -96 73 -122 67 -35 140 -16 178 45 40 65 23 129 -50 189
l-42 35 12 170 c6 94 11 224 11 290 l0 120 62 31 61 30 169 -110 c115 -76 170
-117 172 -132 3 -11 7 -40 10 -64 5 -53 27 -79 77 -92 l37 -10 16 -90 c10 -49
21 -122 27 -162 5 -40 13 -97 17 -126 7 -42 5 -57 -5 -68 -8 -8 -18 -14 -23
-14 -20 0 -40 -61 -40 -121 l0 -62 -103 -111 c-56 -61 -126 -138 -155 -172
-52 -61 -53 -61 -100 -57 -88 8 -150 -61 -139 -156 4 -36 13 -52 41 -78 43
-40 91 -44 150 -12 35 19 41 19 80 5 81 -29 629 -285 637 -298 5 -7 9 -27 9
-43 0 -29 -7 -34 -102 -85 -57 -30 -211 -114 -343 -186 -132 -73 -253 -140
-268 -148 -20 -12 -28 -22 -25 -38 5 -39 35 -32 146 35 59 35 219 126 356 202
l248 138 34 -17 c73 -34 168 -13 200 46 20 35 17 106 -6 143 -23 38 -79 68
-116 63 -24 -3 -28 4 -59 82 -36 94 -242 568 -267 615 -15 28 -15 32 3 56 52
74 24 198 -51 220 -34 10 -39 16 -42 48 -3 20 -18 116 -33 214 l-28 178 26 27
c49 52 56 106 20 175 -14 27 -11 33 52 152 37 68 81 145 99 171 28 45 35 49
81 56 107 15 145 130 68 210 -76 80 -211 13 -200 -100 3 -24 12 -51 21 -60 14
-17 11 -26 -48 -127 -35 -61 -78 -139 -97 -175 -31 -59 -37 -65 -62 -62 -16 2
-50 -4 -76 -13 l-48 -16 -144 97 c-79 53 -154 104 -167 113 -20 14 -22 22 -17
66 8 69 -32 150 -90 182 -68 37 -65 23 -65 267 l0 224 24 6 c27 7 60 55 70
101 8 38 6 37 233 141 103 47 209 97 235 111 l47 25 34 -21 c115 -71 253 50
192 169 -66 128 -255 86 -255 -57 0 -40 -2 -43 -53 -70 -29 -15 -141 -70 -250
-122 l-197 -94 -23 21 c-50 47 -108 53 -160 18 l-35 -24 -179 106 c-99 59
-213 125 -255 147 -71 37 -77 42 -82 79 -9 53 -22 74 -59 96 -37 23 -81 25
-118 5z m1571 -105 c33 -18 42 -46 26 -79 -17 -31 -53 -44 -83 -28 -41 23 -45
66 -7 96 30 24 38 25 64 11z m-1746 -891 c48 -38 25 -99 -38 -99 -45 0 -73 31
-60 68 8 22 44 51 65 52 4 0 18 -9 33 -21z m1016 -209 c0 -5 5 -9 12 -7 7 1
12 -3 13 -10 0 -6 3 -15 8 -19 4 -4 7 -23 7 -41 0 -49 -40 -87 -83 -79 -46 9
-67 39 -67 95 0 26 5 52 12 59 14 14 98 16 98 2z m-17 -968 c33 -34 34 -49 5
-79 -25 -27 -39 -28 -78 -8 -24 13 -30 22 -30 50 0 66 56 86 103 37z m688
-349 l47 -5 45 -97 c25 -53 93 -204 151 -336 100 -228 129 -316 109 -328 -4
-3 -33 6 -63 20 -30 14 -102 47 -160 73 -135 62 -415 189 -457 206 -30 13 -32
16 -21 39 9 21 8 32 -5 61 -10 19 -14 40 -10 46 3 7 62 74 130 151 68 76 131
150 140 163 11 17 21 23 32 18 9 -3 37 -9 62 -11z"/>
<path d="M15096 10674 c-4 -9 -4 -19 -1 -22 2 -3 7 3 11 12 4 9 4 19 1 22 -2
3 -7 -3 -11 -12z"/>
</g>
</svg>
